<!--?xml version="1.0" encoding="utf-8"?-->
<!-- Generator: Adobe Illustrator 18.0.0, SVG Export Plug-In . SVG Version: 6.00 Build 0)  -->

<svg version="1.1" id="_x32_" xmlns="http://www.w3.org/2000/svg" xmlns:xlink="http://www.w3.org/1999/xlink" x="0px" y="0px" viewBox="0 0 512 512" style="width: 32px; height: 32px; opacity: 1;" xml:space="preserve">
<style type="text/css">
	.st0{fill:#fff;}
</style>
<g>
	<path class="st0" d="M426.093,0c-9.344,0-17.502,6.318-19.838,15.363l-20.277,78.574H28.775c-6.434,0-12.496,3.025-16.363,8.166
		c-3.867,5.144-5.096,11.805-3.316,17.994l58.826,204.123c2.526,8.771,10.557,14.814,19.682,14.814H322.73l-8.858,34.324H89.396
		v36.133h236.594c9.342,0,17.5-6.324,19.836-15.373l92.383-357.988h65.496V0H426.093z M349.925,233.652l-17.871,69.25h-45.133
		v-69.25H349.925z M376.653,130.068l-17.406,67.453h-72.326v-67.453H376.653z M250.79,233.652v69.25h-77.084v-69.25H250.79z
		 M250.79,130.068v67.453h-77.084v-67.453H250.79z M143.361,130.068v67.453H69.009l-19.436-67.453H143.361z M143.361,233.652v69.25
		H99.374l-19.955-69.25H143.361z" style="fill: rgb(255, 255, 255);"></path>
	<path class="st0" d="M123.903,436.688c-20.23,0-36.633,16.402-36.633,36.64c0,20.234,16.402,36.635,36.633,36.635
		c20.24,0,36.633-16.4,36.633-36.635C160.536,453.09,144.144,436.688,123.903,436.688z" style="fill: rgb(255, 255, 255);"></path>
	<path class="st0" d="M299.681,438.728c-20.24,0-36.633,16.408-36.633,36.633c0,20.24,16.392,36.639,36.633,36.639
		c20.23,0,36.633-16.398,36.633-36.639C336.314,455.137,319.911,438.728,299.681,438.728z" style="fill: rgb(255, 255, 255);"></path>
</g>
</svg>
